<mxfile host="app.diagrams.net" modified="2022-05-31T04:39:30.465Z" agent="5.0 (Macintosh; Intel Mac OS X 10_15_7) AppleWebKit/537.36 (KHTML, like Gecko) Chrome/101.0.0.0 Safari/537.36" etag="mqUomjw8jLPmoIqD5Y2_" version="18.1.3" type="github">
  <diagram id="WdS9A5xdfVr5fqvAi_qz" name="Page-1">
    <mxGraphModel dx="1731" dy="971" grid="1" gridSize="10" guides="1" tooltips="1" connect="1" arrows="1" fold="1" page="1" pageScale="1" pageWidth="850" pageHeight="1100" math="0" shadow="0">
      <root>
        <mxCell id="0" />
        <mxCell id="1" parent="0" />
        <mxCell id="BUCa17lC-vHy0HH7byX3-2" value="" style="group" vertex="1" connectable="0" parent="1">
          <mxGeometry x="80" y="280" width="1060" height="190" as="geometry" />
        </mxCell>
        <mxCell id="BUCa17lC-vHy0HH7byX3-3" value="" style="rounded=1;whiteSpace=wrap;html=1;fontSize=16;dashed=1;fillOpacity=50;strokeOpacity=50;" vertex="1" parent="BUCa17lC-vHy0HH7byX3-2">
          <mxGeometry width="1060" height="190" as="geometry" />
        </mxCell>
        <mxCell id="BUCa17lC-vHy0HH7byX3-4" value="Domain Service" style="text;html=1;strokeColor=none;fillColor=none;align=center;verticalAlign=middle;whiteSpace=wrap;rounded=0;dashed=1;fontSize=16;" vertex="1" parent="BUCa17lC-vHy0HH7byX3-2">
          <mxGeometry x="8.412698412698413" y="10" width="126.19047619047619" height="30" as="geometry" />
        </mxCell>
        <mxCell id="BUCa17lC-vHy0HH7byX3-14" value="" style="rounded=0;whiteSpace=wrap;html=1;fontSize=16;" vertex="1" parent="BUCa17lC-vHy0HH7byX3-2">
          <mxGeometry x="600" y="40" width="310" height="120" as="geometry" />
        </mxCell>
        <mxCell id="BUCa17lC-vHy0HH7byX3-42" value="Worker" style="rounded=0;whiteSpace=wrap;html=1;fontSize=15;" vertex="1" parent="BUCa17lC-vHy0HH7byX3-2">
          <mxGeometry x="623" y="82" width="107" height="60" as="geometry" />
        </mxCell>
        <mxCell id="BUCa17lC-vHy0HH7byX3-43" value="Worker" style="rounded=0;whiteSpace=wrap;html=1;fontSize=15;" vertex="1" parent="BUCa17lC-vHy0HH7byX3-2">
          <mxGeometry x="770" y="83" width="107" height="60" as="geometry" />
        </mxCell>
        <mxCell id="BUCa17lC-vHy0HH7byX3-44" value="&lt;span style=&quot;font-size: 16px;&quot;&gt;TxCollector Workers&lt;/span&gt;" style="text;html=1;strokeColor=none;fillColor=none;align=center;verticalAlign=middle;whiteSpace=wrap;rounded=0;fontSize=15;" vertex="1" parent="BUCa17lC-vHy0HH7byX3-2">
          <mxGeometry x="610" y="40" width="170" height="30" as="geometry" />
        </mxCell>
        <mxCell id="BUCa17lC-vHy0HH7byX3-5" value="" style="group" vertex="1" connectable="0" parent="1">
          <mxGeometry x="80" y="40" width="1060" height="190" as="geometry" />
        </mxCell>
        <mxCell id="BUCa17lC-vHy0HH7byX3-6" value="" style="rounded=1;whiteSpace=wrap;html=1;fontSize=16;dashed=1;fillOpacity=50;strokeOpacity=50;" vertex="1" parent="BUCa17lC-vHy0HH7byX3-5">
          <mxGeometry width="1060" height="190" as="geometry" />
        </mxCell>
        <mxCell id="BUCa17lC-vHy0HH7byX3-7" value="Application Interface" style="text;html=1;strokeColor=none;fillColor=none;align=center;verticalAlign=middle;whiteSpace=wrap;rounded=0;dashed=1;fontSize=16;" vertex="1" parent="BUCa17lC-vHy0HH7byX3-5">
          <mxGeometry x="8.412698412698413" y="10" width="151.42857142857142" height="30" as="geometry" />
        </mxCell>
        <mxCell id="BUCa17lC-vHy0HH7byX3-8" value="Subgraphs Aggregator V3&lt;br&gt;(Ethereum, BSC, Polygon, ...)" style="rounded=0;whiteSpace=wrap;html=1;fontSize=16;" vertex="1" parent="BUCa17lC-vHy0HH7byX3-5">
          <mxGeometry x="658.2536507936508" y="55" width="193.4920634920635" height="80" as="geometry" />
        </mxCell>
        <mxCell id="BUCa17lC-vHy0HH7byX3-9" value="" style="rounded=1;whiteSpace=wrap;html=1;fontSize=16;dashed=1;fillOpacity=50;strokeOpacity=50;" vertex="1" parent="1">
          <mxGeometry x="80" y="620" width="1060" height="190" as="geometry" />
        </mxCell>
        <mxCell id="BUCa17lC-vHy0HH7byX3-32" style="edgeStyle=orthogonalEdgeStyle;rounded=0;orthogonalLoop=1;jettySize=auto;html=1;exitX=0.5;exitY=1;exitDx=0;exitDy=0;entryX=0.25;entryY=0;entryDx=0;entryDy=0;" edge="1" parent="1" source="BUCa17lC-vHy0HH7byX3-11" target="BUCa17lC-vHy0HH7byX3-23">
          <mxGeometry relative="1" as="geometry" />
        </mxCell>
        <mxCell id="BUCa17lC-vHy0HH7byX3-11" value="TxCollector Master" style="rounded=0;whiteSpace=wrap;html=1;fontSize=16;" vertex="1" parent="1">
          <mxGeometry x="350" y="340" width="180" height="70" as="geometry" />
        </mxCell>
        <mxCell id="BUCa17lC-vHy0HH7byX3-34" style="edgeStyle=orthogonalEdgeStyle;rounded=0;orthogonalLoop=1;jettySize=auto;html=1;exitX=0.75;exitY=1;exitDx=0;exitDy=0;entryX=0.5;entryY=0;entryDx=0;entryDy=0;" edge="1" parent="1" source="BUCa17lC-vHy0HH7byX3-14" target="BUCa17lC-vHy0HH7byX3-22">
          <mxGeometry relative="1" as="geometry" />
        </mxCell>
        <mxCell id="BUCa17lC-vHy0HH7byX3-22" value="Database" style="rounded=0;whiteSpace=wrap;html=1;fontSize=16;" vertex="1" parent="1">
          <mxGeometry x="823" y="680" width="180" height="70" as="geometry" />
        </mxCell>
        <mxCell id="BUCa17lC-vHy0HH7byX3-33" style="edgeStyle=orthogonalEdgeStyle;rounded=0;orthogonalLoop=1;jettySize=auto;html=1;exitX=0.75;exitY=0;exitDx=0;exitDy=0;entryX=0.25;entryY=1;entryDx=0;entryDy=0;" edge="1" parent="1" source="BUCa17lC-vHy0HH7byX3-23" target="BUCa17lC-vHy0HH7byX3-14">
          <mxGeometry relative="1" as="geometry" />
        </mxCell>
        <mxCell id="BUCa17lC-vHy0HH7byX3-23" value="Task Queue" style="rounded=0;whiteSpace=wrap;html=1;fontSize=16;" vertex="1" parent="1">
          <mxGeometry x="395" y="680" width="180" height="70" as="geometry" />
        </mxCell>
        <mxCell id="BUCa17lC-vHy0HH7byX3-27" value="Infrastructure" style="text;html=1;strokeColor=none;fillColor=none;align=center;verticalAlign=middle;whiteSpace=wrap;rounded=0;dashed=1;fontSize=16;" vertex="1" parent="1">
          <mxGeometry x="100" y="630" width="130" height="30" as="geometry" />
        </mxCell>
        <mxCell id="BUCa17lC-vHy0HH7byX3-28" style="edgeStyle=orthogonalEdgeStyle;rounded=0;orthogonalLoop=1;jettySize=auto;html=1;entryX=0.5;entryY=0;entryDx=0;entryDy=0;fontSize=16;" edge="1" parent="1" source="BUCa17lC-vHy0HH7byX3-8" target="BUCa17lC-vHy0HH7byX3-14">
          <mxGeometry relative="1" as="geometry" />
        </mxCell>
      </root>
    </mxGraphModel>
  </diagram>
</mxfile>
